<mxfile host="65bd71144e">
    <diagram id="86pSvmNOFy8DhFguqCrt" name="Requesting">
        <mxGraphModel dx="2663" dy="1643" grid="0" gridSize="10" guides="1" tooltips="1" connect="1" arrows="1" fold="1" page="0" pageScale="1" pageWidth="1169" pageHeight="827" background="#FFFFFF" math="0" shadow="1">
            <root>
                <mxCell id="0"/>
                <mxCell id="1" parent="0"/>
                <mxCell id="11" value="" style="edgeStyle=none;html=1;" edge="1" parent="1" source="9" target="10">
                    <mxGeometry relative="1" as="geometry"/>
                </mxCell>
                <mxCell id="15" value="yes" style="edgeLabel;html=1;align=center;verticalAlign=middle;resizable=0;points=[];" vertex="1" connectable="0" parent="11">
                    <mxGeometry x="-0.2399" y="-3" relative="1" as="geometry">
                        <mxPoint as="offset"/>
                    </mxGeometry>
                </mxCell>
                <mxCell id="13" value="" style="edgeStyle=none;html=1;" edge="1" parent="1" source="9" target="12">
                    <mxGeometry relative="1" as="geometry"/>
                </mxCell>
                <mxCell id="14" value="no" style="edgeLabel;html=1;align=center;verticalAlign=middle;resizable=0;points=[];" vertex="1" connectable="0" parent="13">
                    <mxGeometry x="-0.2533" y="3" relative="1" as="geometry">
                        <mxPoint as="offset"/>
                    </mxGeometry>
                </mxCell>
                <mxCell id="9" value="Images required to continue treatment?" style="rhombus;whiteSpace=wrap;html=1;" vertex="1" parent="1">
                    <mxGeometry x="30" y="30" width="140" height="140" as="geometry"/>
                </mxCell>
                <mxCell id="17" value="" style="edgeStyle=none;html=1;" edge="1" parent="1" source="10" target="16">
                    <mxGeometry relative="1" as="geometry"/>
                </mxCell>
                <mxCell id="18" value="&lt;span style=&quot;font-size: 12px; background-color: rgb(42, 37, 47);&quot;&gt;Image acquisition&lt;br&gt;requires scheduling&lt;/span&gt;" style="edgeLabel;html=1;align=center;verticalAlign=middle;resizable=0;points=[];" vertex="1" connectable="0" parent="17">
                    <mxGeometry x="0.2847" relative="1" as="geometry">
                        <mxPoint x="-29" as="offset"/>
                    </mxGeometry>
                </mxCell>
                <mxCell id="10" value="Staff logs decision in PMS/EHR and schedules appointment" style="whiteSpace=wrap;html=1;" vertex="1" parent="1">
                    <mxGeometry x="260" y="70" width="120" height="60" as="geometry"/>
                </mxCell>
                <mxCell id="12" value="Normal clinical workflow continues" style="whiteSpace=wrap;html=1;" vertex="1" parent="1">
                    <mxGeometry x="40" y="220" width="120" height="60" as="geometry"/>
                </mxCell>
                <mxCell id="20" value="" style="edgeStyle=none;html=1;" edge="1" parent="1" source="16" target="19">
                    <mxGeometry relative="1" as="geometry"/>
                </mxCell>
                <mxCell id="21" value="patient checks in" style="edgeLabel;html=1;align=center;verticalAlign=middle;resizable=0;points=[];" vertex="1" connectable="0" parent="20">
                    <mxGeometry x="-0.3306" y="2" relative="1" as="geometry">
                        <mxPoint x="20" y="2" as="offset"/>
                    </mxGeometry>
                </mxCell>
                <mxCell id="16" value="Scheduled appointment type is recognized by PMS as one that requires requesting an image acquisition" style="whiteSpace=wrap;html=1;" vertex="1" parent="1">
                    <mxGeometry x="550" y="45" width="120" height="110" as="geometry"/>
                </mxCell>
                <mxCell id="19" value="PMS generates Request/Worklist and serves it on the network" style="whiteSpace=wrap;html=1;" vertex="1" parent="1">
                    <mxGeometry x="820" y="70" width="120" height="60" as="geometry"/>
                </mxCell>
            </root>
        </mxGraphModel>
    </diagram>
    <diagram id="E2GEWFckva9GLouYvUoB" name="Acquiring">
        <mxGraphModel dx="1837" dy="1133" grid="0" gridSize="10" guides="1" tooltips="1" connect="1" arrows="1" fold="1" page="0" pageScale="1" pageWidth="1169" pageHeight="827" background="#ffffff" math="0" shadow="1">
            <root>
                <mxCell id="0"/>
                <mxCell id="1" parent="0"/>
                <mxCell id="snjP3uFJaK-jcif3HeoX-4" value="" style="edgeStyle=none;html=1;fontColor=#000000;fillColor=#FFFFFF;labelBackgroundColor=#FFFFFF;strokeColor=#000000;" edge="1" parent="1" source="snjP3uFJaK-jcif3HeoX-2" target="snjP3uFJaK-jcif3HeoX-3">
                    <mxGeometry relative="1" as="geometry"/>
                </mxCell>
                <mxCell id="TTRC72VlnkmNXO__36qd-1" value="&lt;font style=&quot;&quot; color=&quot;#000000&quot;&gt;Software Queries PMS and&lt;br&gt;obtains list of requests&lt;/font&gt;" style="edgeLabel;html=1;align=center;verticalAlign=middle;resizable=0;points=[];labelBackgroundColor=none;" vertex="1" connectable="0" parent="snjP3uFJaK-jcif3HeoX-4">
                    <mxGeometry x="0.0551" y="-1" relative="1" as="geometry">
                        <mxPoint x="-4" y="-14" as="offset"/>
                    </mxGeometry>
                </mxCell>
                <mxCell id="snjP3uFJaK-jcif3HeoX-2" value="&lt;font&gt;Staff Activates Modality&lt;/font&gt;" style="rounded=0;whiteSpace=wrap;html=1;fillColor=#FFFFFF;fontColor=#000000;labelBackgroundColor=#FFFFFF;strokeColor=#000000;" vertex="1" parent="1">
                    <mxGeometry x="122" y="20" width="120" height="60" as="geometry"/>
                </mxCell>
                <mxCell id="dHU0HvCSN4rY4qIAY7DR-2" value="" style="edgeStyle=none;fontColor=#000000;labelBackgroundColor=none;labelBorderColor=none;strokeColor=#000000;" edge="1" parent="1" source="snjP3uFJaK-jcif3HeoX-3" target="dHU0HvCSN4rY4qIAY7DR-1">
                    <mxGeometry relative="1" as="geometry"/>
                </mxCell>
                <mxCell id="dHU0HvCSN4rY4qIAY7DR-3" value="Staff Selects &#10;Correct Request" style="edgeLabel;align=center;verticalAlign=middle;resizable=0;points=[];fontColor=#000000;labelBackgroundColor=none;labelBorderColor=none;strokeColor=#000000;" vertex="1" connectable="0" parent="dHU0HvCSN4rY4qIAY7DR-2">
                    <mxGeometry x="0.0036" y="-1" relative="1" as="geometry">
                        <mxPoint x="-1" y="-15" as="offset"/>
                    </mxGeometry>
                </mxCell>
                <mxCell id="snjP3uFJaK-jcif3HeoX-3" value="List of Acquisition Requests is Displayed" style="whiteSpace=wrap;html=1;fillColor=#FFFFFF;rounded=0;fontColor=#000000;labelBackgroundColor=#FFFFFF;strokeColor=#000000;" vertex="1" parent="1">
                    <mxGeometry x="405" y="20" width="120" height="60" as="geometry"/>
                </mxCell>
                <mxCell id="vxR-cRI8WXSF0gHux6vN-2" value="" style="edgeStyle=none;html=0;labelBackgroundColor=none;labelBorderColor=none;strokeColor=#000000;fontColor=#000000;" edge="1" parent="1" source="dHU0HvCSN4rY4qIAY7DR-1" target="vxR-cRI8WXSF0gHux6vN-1">
                    <mxGeometry relative="1" as="geometry"/>
                </mxCell>
                <mxCell id="vxR-cRI8WXSF0gHux6vN-3" value="Image acquisition modality&#10;uses the request to &#10;add meta data to image" style="edgeLabel;align=center;verticalAlign=middle;resizable=0;points=[];fontColor=#000000;labelBackgroundColor=none;" vertex="1" connectable="0" parent="vxR-cRI8WXSF0gHux6vN-2">
                    <mxGeometry x="-0.1427" y="1" relative="1" as="geometry">
                        <mxPoint x="10" y="-28" as="offset"/>
                    </mxGeometry>
                </mxCell>
                <mxCell id="dHU0HvCSN4rY4qIAY7DR-1" value="Image Acquistion Starts" style="whiteSpace=wrap;html=1;fillColor=#FFFFFF;strokeColor=#000000;fontColor=#000000;rounded=0;labelBackgroundColor=#FFFFFF;" vertex="1" parent="1">
                    <mxGeometry x="658" y="20" width="120" height="60" as="geometry"/>
                </mxCell>
                <mxCell id="vxR-cRI8WXSF0gHux6vN-1" value="Images are archived in PACS" style="whiteSpace=wrap;html=1;fillColor=#FFFFFF;strokeColor=#000000;fontColor=#000000;rounded=0;labelBackgroundColor=#FFFFFF;" vertex="1" parent="1">
                    <mxGeometry x="942" y="20" width="120" height="60" as="geometry"/>
                </mxCell>
            </root>
        </mxGraphModel>
    </diagram>
    <diagram id="0FPVtB1YhECzMd1UB36y" name="Actors">
        <mxGraphModel dx="2048" dy="2113" grid="0" gridSize="10" guides="1" tooltips="1" connect="1" arrows="1" fold="1" page="0" pageScale="1" pageWidth="1169" pageHeight="827" background="#ffffff" math="0" shadow="0">
            <root>
                <mxCell id="0"/>
                <mxCell id="1" parent="0"/>
                <mxCell id="4pqw1KPLivjrV6JZ13sy-1" value="" style="html=1;fontColor=#000000;fillColor=#FFFFFF;labelBackgroundColor=#FFFFFF;strokeColor=#000000;startArrow=none;startFill=0;" edge="1" parent="1" source="4pqw1KPLivjrV6JZ13sy-3" target="4pqw1KPLivjrV6JZ13sy-4">
                    <mxGeometry relative="1" as="geometry"/>
                </mxCell>
                <mxCell id="4pqw1KPLivjrV6JZ13sy-2" value="&lt;font color=&quot;#000000&quot;&gt;Patient and Encounter Information&lt;/font&gt;" style="edgeLabel;html=1;align=center;verticalAlign=middle;resizable=0;points=[];labelBackgroundColor=none;" vertex="1" connectable="0" parent="4pqw1KPLivjrV6JZ13sy-1">
                    <mxGeometry x="0.0551" y="-1" relative="1" as="geometry">
                        <mxPoint x="5" y="-11" as="offset"/>
                    </mxGeometry>
                </mxCell>
                <mxCell id="4pqw1KPLivjrV6JZ13sy-7" style="edgeStyle=none;html=0;labelBackgroundColor=none;labelBorderColor=none;strokeColor=#000000;fontColor=#000000;startArrow=none;startFill=0;" edge="1" parent="1" source="4pqw1KPLivjrV6JZ13sy-3" target="4pqw1KPLivjrV6JZ13sy-5">
                    <mxGeometry relative="1" as="geometry"/>
                </mxCell>
                <mxCell id="4pqw1KPLivjrV6JZ13sy-8" value="Patient and other Information" style="edgeLabel;html=1;align=center;verticalAlign=middle;resizable=0;points=[];fontColor=#000000;labelBackgroundColor=none;" vertex="1" connectable="0" parent="4pqw1KPLivjrV6JZ13sy-7">
                    <mxGeometry x="0.1047" relative="1" as="geometry">
                        <mxPoint x="-12" y="-11" as="offset"/>
                    </mxGeometry>
                </mxCell>
                <mxCell id="4pqw1KPLivjrV6JZ13sy-3" value="&lt;font&gt;Central Authority&lt;br&gt;PMS&lt;br&gt;&lt;/font&gt;" style="rounded=0;whiteSpace=wrap;html=1;fillColor=#FFFFFF;fontColor=#000000;labelBackgroundColor=#FFFFFF;strokeColor=#000000;" vertex="1" parent="1">
                    <mxGeometry x="-643" y="-1121" width="120" height="60" as="geometry"/>
                </mxCell>
                <mxCell id="4pqw1KPLivjrV6JZ13sy-4" value="Images&lt;br&gt;PACS" style="whiteSpace=wrap;html=1;fillColor=#FFFFFF;rounded=0;fontColor=#000000;labelBackgroundColor=#FFFFFF;strokeColor=#000000;" vertex="1" parent="1">
                    <mxGeometry x="-958" y="-1118" width="120" height="60" as="geometry"/>
                </mxCell>
                <mxCell id="4pqw1KPLivjrV6JZ13sy-5" value="Other Documents&lt;br&gt;VNA" style="whiteSpace=wrap;html=1;fillColor=#FFFFFF;rounded=0;fontColor=#000000;labelBackgroundColor=#FFFFFF;strokeColor=#000000;" vertex="1" parent="1">
                    <mxGeometry x="-291" y="-1121" width="120" height="60" as="geometry"/>
                </mxCell>
                <mxCell id="4pqw1KPLivjrV6JZ13sy-9" style="edgeStyle=none;html=0;labelBackgroundColor=none;labelBorderColor=none;strokeColor=#000000;fontColor=#000000;startArrow=none;startFill=0;" edge="1" parent="1" source="4pqw1KPLivjrV6JZ13sy-6" target="4pqw1KPLivjrV6JZ13sy-4">
                    <mxGeometry relative="1" as="geometry"/>
                </mxCell>
                <mxCell id="4pqw1KPLivjrV6JZ13sy-10" style="edgeStyle=none;html=0;labelBackgroundColor=none;labelBorderColor=none;strokeColor=#000000;fontColor=#000000;startArrow=classic;startFill=1;" edge="1" parent="1" source="4pqw1KPLivjrV6JZ13sy-6" target="4pqw1KPLivjrV6JZ13sy-3">
                    <mxGeometry relative="1" as="geometry"/>
                </mxCell>
                <mxCell id="4pqw1KPLivjrV6JZ13sy-12" value="Provide local terminology&lt;br&gt;Get global termonology" style="edgeLabel;html=1;align=center;verticalAlign=middle;resizable=0;points=[];fontColor=#000000;labelBackgroundColor=none;" vertex="1" connectable="0" parent="4pqw1KPLivjrV6JZ13sy-10">
                    <mxGeometry x="-0.0725" y="1" relative="1" as="geometry">
                        <mxPoint x="-4" as="offset"/>
                    </mxGeometry>
                </mxCell>
                <mxCell id="4pqw1KPLivjrV6JZ13sy-11" style="edgeStyle=none;html=0;labelBackgroundColor=none;labelBorderColor=none;strokeColor=#000000;fontColor=#000000;startArrow=none;startFill=0;" edge="1" parent="1" source="4pqw1KPLivjrV6JZ13sy-6" target="4pqw1KPLivjrV6JZ13sy-5">
                    <mxGeometry relative="1" as="geometry"/>
                </mxCell>
                <mxCell id="4pqw1KPLivjrV6JZ13sy-6" value="Codes Translator&lt;br&gt;Terminology Service" style="whiteSpace=wrap;html=1;fillColor=#FFFFFF;rounded=0;fontColor=#000000;labelBackgroundColor=#FFFFFF;strokeColor=#000000;" vertex="1" parent="1">
                    <mxGeometry x="-643" y="-1288" width="120" height="60" as="geometry"/>
                </mxCell>
                <mxCell id="4pqw1KPLivjrV6JZ13sy-14" style="edgeStyle=none;html=0;labelBackgroundColor=none;labelBorderColor=none;strokeColor=#000000;fontColor=#545454;startArrow=classic;startFill=1;entryX=0.5;entryY=0;entryDx=0;entryDy=0;" edge="1" parent="1" source="4pqw1KPLivjrV6JZ13sy-13" target="4pqw1KPLivjrV6JZ13sy-6">
                    <mxGeometry relative="1" as="geometry">
                        <mxPoint x="-583" y="-1304" as="targetPoint"/>
                    </mxGeometry>
                </mxCell>
                <mxCell id="4pqw1KPLivjrV6JZ13sy-13" value="&lt;font color=&quot;#545454&quot;&gt;External Terminologies and Codes&lt;/font&gt;" style="whiteSpace=wrap;html=1;fillColor=#FFFFFF;rounded=0;fontColor=#000000;labelBackgroundColor=#FFFFFF;strokeColor=#000000;" vertex="1" parent="1">
                    <mxGeometry x="-643" y="-1461" width="120" height="60" as="geometry"/>
                </mxCell>
            </root>
        </mxGraphModel>
    </diagram>
</mxfile>